# xmcd
#
# Track frame offsets:
#	150
#	13175
#	32615
#	46137
#	57480
#	73417
#	90637
#	106387
#	117587
#	133157
#	146917
#	164200
#	182265
#	199390
#	214837
#	224017
#	239530
#	249957
#	261892
#	279777
#
# Disc length: 3878 seconds
#
# Revision: 0
# Processed by: cddbd v1.5.1PL0 Copyright (c) Steve Scherf et al.
# Submitted via: dBpowerAMP V4.0
#
DISCID=410f2414
DTITLE=Willie Nelson - 20 Super Sucessos - Internacional
DYEAR=1900
DGENRE=Country
TTITLE0=Good Hearted Woman
TTITLE1=Georgia on My Mind
TTITLE2=Heartbreak Hotel
TTITLE3=On the Road Again
TTITLE4=Blue Skies
TTITLE5=As Time Goes By
TTITLE6=Always on My Mind
TTITLE7=Love Me Tender
TTITLE8=Honky Tonk Woman
TTITLE9=My Heroes Have Always Been Cowboys
TTITLE10=Stardust
TTITLE11=Someone to Watch Over Me
TTITLE12=Unchained Melody
TTITLE13=Stay a Little Longer
TTITLE14=If You've Got the Money I've Got the Time
TTITLE15=Mammas don't Let Your Babies Grow Up to Be Cowboys
TTITLE16=Blue Eyes Crying in the Rain
TTITLE17=Railroad Lady
TTITLE18=Help Me make It Through the Night
TTITLE19=Heartaches of a Fool
EXTD=
EXTT0=
EXTT1=
EXTT2=
EXTT3=
EXTT4=
EXTT5=
EXTT6=
EXTT7=
EXTT8=
EXTT9=
EXTT10=
EXTT11=
EXTT12=
EXTT13=
EXTT14=
EXTT15=
EXTT16=
EXTT17=
EXTT18=
EXTT19=
PLAYORDER=
